<svg width="30" height="30" viewBox="0 0 30 30" fill="none" xmlns="http://www.w3.org/2000/svg">
<rect width="30" height="30" rx="5.76923" fill="#414141"/>
<g clip-path="url(#clip0_7_21351)">
<path d="M19.3268 9.80786H23.6536V11.5386H21.9229V22.7882C21.9229 23.0177 21.8317 23.2378 21.6694 23.4001C21.5071 23.5624 21.287 23.6536 21.0575 23.6536H8.94251C8.713 23.6536 8.49289 23.5624 8.33061 23.4001C8.16832 23.2378 8.07715 23.0177 8.07715 22.7882V11.5386H6.34644V9.80786H10.6732V7.21179C10.6732 6.98229 10.7644 6.76218 10.9267 6.59989C11.089 6.43761 11.3091 6.34644 11.5386 6.34644H18.4614C18.6909 6.34644 18.9111 6.43761 19.0733 6.59989C19.2356 6.76218 19.3268 6.98229 19.3268 7.21179V9.80786ZM20.1922 11.5386H9.80786V21.9229H20.1922V11.5386ZM12.4039 14.1347H14.1347V19.3268H12.4039V14.1347ZM15.8654 14.1347H17.5961V19.3268H15.8654V14.1347ZM12.4039 8.07715V9.80786H17.5961V8.07715H12.4039Z" fill="white"/>
</g>
<defs>
<clipPath id="clip0_7_21351">
<rect width="20.7686" height="20.7686" fill="white" transform="translate(4.61572 4.61572)"/>
</clipPath>
</defs>
</svg>
