<svg width="30" height="30" viewBox="0 0 30 30" fill="none" xmlns="http://www.w3.org/2000/svg">
<rect x="-0.00012207" width="30" height="30" rx="5.76923" fill="#414141"/>
<g clip-path="url(#clip0_7_21346)">
<path d="M18.3247 13.0962L17.1011 11.8726L9.04114 19.9325V21.1561H10.2648L18.3247 13.0962ZM19.5483 11.8726L20.7719 10.649L19.5483 9.42535L18.3247 10.649L19.5483 11.8726ZM10.9813 22.8868H7.31042V19.2151L18.9365 7.58906C19.0988 7.42683 19.3188 7.33569 19.5483 7.33569C19.7778 7.33569 19.9978 7.42683 20.1601 7.58906L22.6082 10.0372C22.7704 10.1994 22.8616 10.4195 22.8616 10.649C22.8616 10.8784 22.7704 11.0985 22.6082 11.2608L10.9813 22.8868Z" fill="white"/>
</g>
<defs>
<clipPath id="clip0_7_21346">
<rect width="20.7686" height="20.7686" fill="white" transform="translate(4.71423 4.71436)"/>
</clipPath>
</defs>
</svg>
