<svg width="20" height="20" viewBox="0 0 20 20" fill="none" xmlns="http://www.w3.org/2000/svg">
<g clip-path="url(#clip0_483_5791)">
<path d="M15.0252 13.8471L18.5943 17.4153L17.4152 18.5944L13.8468 15.0254C12.5191 16.0897 10.8677 16.6686 9.16601 16.6662C5.02602 16.6662 1.66602 13.3063 1.66602 9.16658C1.66602 5.02681 5.02602 1.66699 9.16601 1.66699C13.306 1.66699 16.666 5.02681 16.666 9.16658C16.6684 10.8681 16.0895 12.5195 15.0252 13.8471ZM13.3535 13.2288C14.4111 12.1413 15.0017 10.6835 14.9993 9.16658C14.9993 5.94342 12.3885 3.33357 9.16601 3.33357C5.94268 3.33357 3.33268 5.94342 3.33268 9.16658C3.33268 12.3889 5.94268 14.9996 9.16601 14.9996C10.683 15.002 12.1409 14.4114 13.2285 13.3538L13.3535 13.2288Z" fill="white"/>
</g>
<defs>
<clipPath id="clip0_483_5791">
<rect width="20" height="19.9989" fill="white"/>
</clipPath>
</defs>
</svg>
